<svg xmlns:dc="http://purl.org/dc/elements/1.1/" xmlns:cc="http://creativecommons.org/ns#" xmlns:rdf="http://www.w3.org/1999/02/22-rdf-syntax-ns#" xmlns:svg="http://www.w3.org/2000/svg" xmlns="http://www.w3.org/2000/svg" xmlns:xlink="http://www.w3.org/1999/xlink" id="svg206618" viewBox="0 0 1024 768" height="142.5" width="190" version="1.1">
  <metadata id="metadata206624" fill="#FFFFFF">
    <rdf:rdf fill="#FFFFFF">
      <cc:work rdf:about="" fill="#FFFFFF">
        <dc:format fill="#FFFFFF">image/svg+xml</dc:format>
        <dc:type rdf:resource="http://purl.org/dc/dcmitype/StillImage" fill="#FFFFFF"></dc:type>
      </cc:work>
    </rdf:rdf>
  </metadata>
  <defs id="defs206622"><linearGradient id="8673b8e2-13b3-41b6-bbde-cc67f2c38eba" gradientUnits="userSpaceOnUse" x1="92.97134" y1="104.19817" x2="108.90907" y2="123.81383" fill="#FFFFFF"> <stop offset="0" style="stop-color:#FFFFFF;stop-opacity:0.5" fill="#FFFFFF"></stop> <stop offset="0.01383" style="stop-color:#FFFFFF;stop-opacity:0.49309" fill="#FFFFFF"></stop> <stop offset="1" style="stop-color:#FFFFFF;stop-opacity:0" fill="#FFFFFF"></stop> </linearGradient><linearGradient id="efb936c9-91fa-4522-bd01-b39894bcd3e0" gradientUnits="userSpaceOnUse" x1="100" y1="92.85046" x2="100" y2="74.09338" fill="#FFFFFF"> <stop offset="0" style="stop-color:#FFFFFF;stop-opacity:0" fill="#FFFFFF"></stop> <stop offset="0.98617" style="stop-color:#FFFFFF;stop-opacity:0.49309" fill="#FFFFFF"></stop> <stop offset="1" style="stop-color:#FFFFFF;stop-opacity:0.5" fill="#FFFFFF"></stop> </linearGradient><linearGradient id="307bcaf4-b3ff-449f-a3f5-e300e95c14a5" gradientUnits="userSpaceOnUse" x1="86.54824" y1="102.03745" x2="111.8803" y2="102.03745" fill="#FFFFFF"> <stop offset="0.25563" style="stop-color:#000000;stop-opacity:0.4" fill="#FFFFFF"></stop> <stop offset="0.46104" style="stop-color:#0F0D0D;stop-opacity:0.28962" fill="#FFFFFF"></stop> <stop offset="0.75796" style="stop-color:#1E1A1B;stop-opacity:0.13006" fill="#FFFFFF"></stop> <stop offset="1" style="stop-color:#231F20;stop-opacity:0" fill="#FFFFFF"></stop> </linearGradient><linearGradient id="cc3d5690-6c8d-404c-bae0-98cea8fd0347" gradientUnits="userSpaceOnUse" x1="99.9849" y1="88.29665" x2="99.9849" y2="123.32087" fill="#FFFFFF"> <stop offset="0" style="stop-color:#000000;stop-opacity:0.4" fill="#FFFFFF"></stop> <stop offset="0.27595" style="stop-color:#0F0D0D;stop-opacity:0.28962" fill="#FFFFFF"></stop> <stop offset="0.67484" style="stop-color:#1E1A1B;stop-opacity:0.13006" fill="#FFFFFF"></stop> <stop offset="1" style="stop-color:#231F20;stop-opacity:0" fill="#FFFFFF"></stop> </linearGradient><linearGradient id="868d5404-89a5-4d59-9a9a-e3eb7f9db369" gradientUnits="userSpaceOnUse" x1="96.08685" y1="85.06548" x2="104.20254" y2="77.45702" fill="#FFFFFF"> <stop offset="0" style="stop-color:#000000;stop-opacity:0.4" fill="#FFFFFF"></stop> <stop offset="0.27595" style="stop-color:#0F0D0D;stop-opacity:0.28962" fill="#FFFFFF"></stop> <stop offset="0.67484" style="stop-color:#1E1A1B;stop-opacity:0.13006" fill="#FFFFFF"></stop> <stop offset="1" style="stop-color:#231F20;stop-opacity:0" fill="#FFFFFF"></stop> </linearGradient><linearGradient id="201d9e7b-9e21-446f-8081-4a7c735e219f" gradientUnits="userSpaceOnUse" x1="100.20536" y1="81.20361" x2="92.47973" y2="88.92923" fill="#FFFFFF"> <stop offset="0" style="stop-color:#FFFFFF;stop-opacity:0.5" fill="#FFFFFF"></stop> <stop offset="0.01383" style="stop-color:#FFFFFF;stop-opacity:0.49309" fill="#FFFFFF"></stop> <stop offset="1" style="stop-color:#FFFFFF;stop-opacity:0" fill="#FFFFFF"></stop> </linearGradient><linearGradient id="ccae1289-0660-4f96-aa45-f993c51c5b4d" gradientUnits="userSpaceOnUse" x1="117.23576" y1="123.33409" x2="130.47548" y2="72.11729" fill="#FFFFFF"> <stop offset="0" style="stop-color:#FFFFFF;stop-opacity:0" fill="#FFFFFF"></stop> <stop offset="0.98617" style="stop-color:#FFFFFF;stop-opacity:0.49309" fill="#FFFFFF"></stop> <stop offset="1" style="stop-color:#FFFFFF;stop-opacity:0.5" fill="#FFFFFF"></stop> </linearGradient><linearGradient id="a67a4e5e-7863-4dd5-8028-1123f3077b3c" gradientUnits="userSpaceOnUse" x1="83.28381" y1="123.82556" x2="69.69891" y2="74.33772" fill="#FFFFFF"> <stop offset="0" style="stop-color:#000000;stop-opacity:0.4" fill="#FFFFFF"></stop> <stop offset="0.27595" style="stop-color:#0F0D0D;stop-opacity:0.28962" fill="#FFFFFF"></stop> <stop offset="0.67484" style="stop-color:#1E1A1B;stop-opacity:0.13006" fill="#FFFFFF"></stop> <stop offset="1" style="stop-color:#231F20;stop-opacity:0" fill="#FFFFFF"></stop> </linearGradient><linearGradient id="8b0a6682-27b8-466a-81a4-94f9c0f54c13" gradientUnits="userSpaceOnUse" x1="82.92176" y1="125.17349" x2="100.38805" y2="73.74495" fill="#FFFFFF"> <stop offset="0" style="stop-color:#231F20;stop-opacity:0" fill="#FFFFFF"></stop> <stop offset="0.32516" style="stop-color:#1E1A1B;stop-opacity:0.13006" fill="#FFFFFF"></stop> <stop offset="0.72405" style="stop-color:#0F0D0D;stop-opacity:0.28962" fill="#FFFFFF"></stop> <stop offset="1" style="stop-color:#000000;stop-opacity:0.4" fill="#FFFFFF"></stop> </linearGradient><linearGradient id="659a11d1-1630-4c30-953b-527ba6af1b67" gradientUnits="userSpaceOnUse" x1="116.26712" y1="123.70642" x2="100.11528" y2="74.2818" fill="#FFFFFF"> <stop offset="0" style="stop-color:#000000;stop-opacity:0.4" fill="#FFFFFF"></stop> <stop offset="0.27595" style="stop-color:#0F0D0D;stop-opacity:0.28962" fill="#FFFFFF"></stop> <stop offset="0.67484" style="stop-color:#1E1A1B;stop-opacity:0.13006" fill="#FFFFFF"></stop> <stop offset="1" style="stop-color:#231F20;stop-opacity:0" fill="#FFFFFF"></stop> </linearGradient><linearGradient id="319bd6da-2fcc-457d-9c46-ccfbe0861a48" gradientUnits="userSpaceOnUse" x1="99.9849" y1="88.29665" x2="99.9849" y2="123.32087" fill="#FFFFFF"> <stop offset="0" style="stop-color:#000000;stop-opacity:0.4" fill="#FFFFFF"></stop> <stop offset="0.27595" style="stop-color:#0F0D0D;stop-opacity:0.28962" fill="#FFFFFF"></stop> <stop offset="0.67484" style="stop-color:#1E1A1B;stop-opacity:0.13006" fill="#FFFFFF"></stop> <stop offset="1" style="stop-color:#231F20;stop-opacity:0" fill="#FFFFFF"></stop> </linearGradient><linearGradient id="b3f093c7-a161-42bf-a34e-39950599fde5" gradientUnits="userSpaceOnUse" x1="96.08685" y1="85.06548" x2="104.20254" y2="77.45702" fill="#FFFFFF"> <stop offset="0" style="stop-color:#000000;stop-opacity:0.4" fill="#FFFFFF"></stop> <stop offset="0.27595" style="stop-color:#0F0D0D;stop-opacity:0.28962" fill="#FFFFFF"></stop> <stop offset="0.67484" style="stop-color:#1E1A1B;stop-opacity:0.13006" fill="#FFFFFF"></stop> <stop offset="1" style="stop-color:#231F20;stop-opacity:0" fill="#FFFFFF"></stop> </linearGradient><linearGradient id="ec924158-07b6-451f-8eed-3c3d25232391" gradientUnits="userSpaceOnUse" x1="100.20536" y1="81.20361" x2="92.47973" y2="88.92923" fill="#FFFFFF"> <stop offset="0" style="stop-color:#FFFFFF;stop-opacity:0.5" fill="#FFFFFF"></stop> <stop offset="0.01383" style="stop-color:#FFFFFF;stop-opacity:0.49309" fill="#FFFFFF"></stop> <stop offset="1" style="stop-color:#FFFFFF;stop-opacity:0" fill="#FFFFFF"></stop> </linearGradient><linearGradient id="21941ae2-93f7-47f0-9c9b-798064bb029d" gradientUnits="userSpaceOnUse" x1="101.59605" y1="104.51739" x2="119.66432" y2="71.21508" fill="#FFFFFF"> <stop offset="0.31657" style="stop-color:#FFFFFF;stop-opacity:0" fill="#FFFFFF"></stop> <stop offset="1" style="stop-color:#FFFFFF;stop-opacity:0.5" fill="#FFFFFF"></stop> </linearGradient><linearGradient id="ea88f26b-3d74-49c5-baef-61a4a6e6e1e1" gradientUnits="userSpaceOnUse" x1="101.59605" y1="104.51739" x2="119.66432" y2="71.21508" fill="#FFFFFF"> <stop offset="0" style="stop-color:#231F20;stop-opacity:0.3" fill="#FFFFFF"></stop> <stop offset="0.77499" style="stop-color:#231F20;stop-opacity:0" fill="#FFFFFF"></stop> </linearGradient><linearGradient id="185341f4-7d64-497e-8d9f-23ef29143f1b" gradientUnits="userSpaceOnUse" x1="100" y1="124.5295" x2="100" y2="107.79992" fill="#FFFFFF"> <stop offset="0" style="stop-color:#231F20;stop-opacity:0.3" fill="#FFFFFF"></stop> <stop offset="0.7933" style="stop-color:#231F20;stop-opacity:0" fill="#FFFFFF"></stop> </linearGradient><linearGradient id="f1fc1735-443c-429d-bfda-ee86d2d2d636" gradientUnits="userSpaceOnUse" x1="98.41799" y1="104.42376" x2="79.99544" y2="70.76717" fill="#FFFFFF"> <stop offset="0" style="stop-color:#231F20;stop-opacity:0.65" fill="#FFFFFF"></stop> <stop offset="0.01048" style="stop-color:#231F20;stop-opacity:0.64101" fill="#FFFFFF"></stop> <stop offset="0.75791" style="stop-color:#231F20;stop-opacity:0" fill="#FFFFFF"></stop> </linearGradient><linearGradient id="730cb4fc-a096-4f85-b13d-3fe43080babd" gradientUnits="userSpaceOnUse" x1="99.69487" y1="74.29882" x2="80.55542" y2="123.91029" fill="#FFFFFF"> <stop offset="0.22" style="stop-color:#231F20;stop-opacity:0" fill="#FFFFFF"></stop> <stop offset="0.47363" style="stop-color:#1E1A1B;stop-opacity:0.13006" fill="#FFFFFF"></stop> <stop offset="0.78476" style="stop-color:#0F0D0D;stop-opacity:0.28962" fill="#FFFFFF"></stop> <stop offset="1" style="stop-color:#000000;stop-opacity:0.4" fill="#FFFFFF"></stop> </linearGradient><linearGradient id="d6de4d5a-5825-4163-9afa-7db735702142" gradientUnits="userSpaceOnUse" x1="99.69487" y1="74.29882" x2="80.55542" y2="123.91029" fill="#FFFFFF"> <stop offset="0" style="stop-color:#FFFFFF;stop-opacity:0.4" fill="#FFFFFF"></stop> <stop offset="0.78" style="stop-color:#FFFFFF;stop-opacity:0" fill="#FFFFFF"></stop> </linearGradient><linearGradient id="b03e0a39-1037-4302-b63d-24925bdde3e6" gradientUnits="userSpaceOnUse" x1="118.91997" y1="121.8189" x2="100.46027" y2="76.05422" fill="#FFFFFF"> <stop offset="0" style="stop-color:#231F20;stop-opacity:0" fill="#FFFFFF"></stop> <stop offset="0.32516" style="stop-color:#1E1A1B;stop-opacity:0.13006" fill="#FFFFFF"></stop> <stop offset="0.72405" style="stop-color:#0F0D0D;stop-opacity:0.28962" fill="#FFFFFF"></stop> <stop offset="1" style="stop-color:#000000;stop-opacity:0.4" fill="#FFFFFF"></stop> </linearGradient><linearGradient id="a34cbe49-c10f-4129-a4f1-9412d16ca70e" gradientUnits="userSpaceOnUse" x1="98.75742" y1="80.72904" x2="79.02769" y2="80.72904" fill="#FFFFFF"> <stop offset="0.25563" style="stop-color:#000000;stop-opacity:0.4" fill="#FFFFFF"></stop> <stop offset="0.46104" style="stop-color:#0F0D0D;stop-opacity:0.28962" fill="#FFFFFF"></stop> <stop offset="0.75796" style="stop-color:#1E1A1B;stop-opacity:0.13006" fill="#FFFFFF"></stop> <stop offset="1" style="stop-color:#231F20;stop-opacity:0" fill="#FFFFFF"></stop> </linearGradient><linearGradient id="1b7a7860-0412-4866-b29f-862c4e3e0351" gradientUnits="userSpaceOnUse" x1="100.00058" y1="76.36192" x2="100.00058" y2="124.5535" fill="#FFFFFF"> <stop offset="0" style="stop-color:#FFFFFF;stop-opacity:0.5" fill="#FFFFFF"></stop> <stop offset="0.01383" style="stop-color:#FFFFFF;stop-opacity:0.49309" fill="#FFFFFF"></stop> <stop offset="1" style="stop-color:#FFFFFF;stop-opacity:0" fill="#FFFFFF"></stop> </linearGradient><linearGradient id="21a6d083-7d1e-47af-97d5-de7955a3c772" gradientUnits="userSpaceOnUse" x1="98.22302" y1="88.5871" x2="108.27877" y2="79.82423" fill="#FFFFFF"> <stop offset="0.25563" style="stop-color:#000000;stop-opacity:0.4" fill="#FFFFFF"></stop> <stop offset="0.46104" style="stop-color:#0F0D0D;stop-opacity:0.28962" fill="#FFFFFF"></stop> <stop offset="0.75796" style="stop-color:#1E1A1B;stop-opacity:0.13006" fill="#FFFFFF"></stop> <stop offset="1" style="stop-color:#231F20;stop-opacity:0" fill="#FFFFFF"></stop> </linearGradient></defs>
  <linearGradient spreadMethod="pad" y2="30%" x2="-10%" y1="120%" x1="30%" id="3d_gradient2-logo-b0cca875-85c7-475d-97e9-2be8212c12d0" fill="#FFFFFF">
    <stop id="stop206599" stop-opacity="1" stop-color="#ffffff" offset="0%" fill="#FFFFFF"></stop>
    <stop id="stop206601" stop-opacity="1" stop-color="#000000" offset="100%" fill="#FFFFFF"></stop>
  </linearGradient>
  <linearGradient gradientTransform="rotate(-30)" spreadMethod="pad" y2="30%" x2="-10%" y1="120%" x1="30%" id="3d_gradient3-logo-b0cca875-85c7-475d-97e9-2be8212c12d0" fill="#FFFFFF">
    <stop id="stop206604" stop-opacity="1" stop-color="#ffffff" offset="0%" fill="#FFFFFF"></stop>
    <stop id="stop206606" stop-opacity="1" stop-color="#cccccc" offset="50%" fill="#FFFFFF"></stop>
    <stop id="stop206608" stop-opacity="1" stop-color="#000000" offset="100%" fill="#FFFFFF"></stop>
  </linearGradient>
  <g id="logo-group" fill="#FFFFFF">
    <image xlink:href="" id="container" x="272" y="144" width="480" height="480" style="display: none;" transform="translate(0 0)" fill="#FFFFFF"></image>
    <g id="logo-center" transform="translate(1.1368683772161603e-13 0)" fill="#FFFFFF">
      <image xlink:href="" id="icon_container" style="display: none;" x="0" y="0" fill="#FFFFFF"></image>
      <g id="slogan" style="font-style:normal;font-weight:300;font-size:32px;line-height:1;font-family:'Fira Sans Condensed';font-variant-ligatures:none;text-align:center;text-anchor:middle" transform="translate(0 0)" fill="#FFFFFF">
        <path id="path206626" style="font-style:normal;font-weight:300;font-size:32px;line-height:1;font-family:'Fira Sans Condensed';font-variant-ligatures:none;text-align:center;text-anchor:middle" d="m 491.14025,0 -5.088,-9.888 -0.512,0.032 h -3.392 V 0 h -1.856 v -21.92 h 4.512 q 7.424,0 7.424,5.952 0,2.24 -1.152,3.712 -1.12,1.44 -3.232,2.016 l 5.408,10.24 z m -6.112,-11.392 q 2.624,0 3.936,-1.12 1.312,-1.12 1.312,-3.456 0,-2.24 -1.28,-3.328 -1.28,-1.088 -4.256,-1.088 h -2.592 v 8.992 z" stroke-width="0px" stroke-linejoin="miter" stroke-miterlimit="2" fill="#F39377" stroke="#F39377" transform="translate(5.684341886080802e-14 368.49232) translate(459.35490749999997 42.4304) scale(1.43) translate(-480.29225 21.92)"></path>
        <path id="path206628" style="font-style:normal;font-weight:300;font-size:32px;line-height:1;font-family:'Fira Sans Condensed';font-variant-ligatures:none;text-align:center;text-anchor:middle" d="m 501.91225,-17.088 q 3.04,0 4.736,2.24 1.696,2.24 1.696,6.432 0,4.128 -1.728,6.464 -1.728,2.304 -4.736,2.304 -3.008,0 -4.704,-2.272 -1.696,-2.304 -1.696,-6.432 0,-4.128 1.696,-6.432 1.728,-2.304 4.736,-2.304 z m 0,1.536 q -2.176,0 -3.36,1.792 -1.184,1.76 -1.184,5.408 0,3.616 1.152,5.408 1.184,1.792 3.36,1.792 2.176,0 3.36,-1.792 1.184,-1.792 1.184,-5.472 0,-3.616 -1.152,-5.376 -1.152,-1.76 -3.36,-1.76 z" stroke-width="0px" stroke-linejoin="miter" stroke-miterlimit="2" fill="#F39377" stroke="#F39377" transform="translate(5.684341886080802e-14 368.49232) translate(483.9337475 49.34016) scale(1.43) translate(-495.48025 17.088)"></path>
        <path id="path206630" style="font-style:normal;font-weight:300;font-size:32px;line-height:1;font-family:'Fira Sans Condensed';font-variant-ligatures:none;text-align:center;text-anchor:middle" d="m 518.09375,0.064 q -0.864,2.88 -2.208,4.352 -1.344,1.504 -4,2.112 l -0.224,-1.408 q 1.504,-0.416 2.368,-1.024 0.864,-0.608 1.376,-1.536 0.512,-0.928 1.056,-2.56 h -0.64 l -5.216,-16.736 h 1.856 l 4.544,15.392 4.416,-15.392 h 1.856 z" stroke-width="0px" stroke-linejoin="miter" stroke-miterlimit="2" fill="#F39377" stroke="#F39377" transform="translate(5.684341886080802e-14 368.49232) translate(508.4232125 49.84352) scale(1.43) translate(-510.60575 16.736)"></path>
        <path id="path206632" style="font-style:normal;font-weight:300;font-size:32px;line-height:1;font-family:'Fira Sans Condensed';font-variant-ligatures:none;text-align:center;text-anchor:middle" d="m 535.91825,-3.424 q 0,1.152 0.288,1.696 0.288,0.544 0.96,0.832 l -0.416,1.248 q -1.056,-0.256 -1.632,-0.864 -0.576,-0.64 -0.768,-1.856 -1.632,2.72 -4.64,2.72 -2.176,0 -3.456,-1.344 -1.248,-1.376 -1.248,-3.648 0,-2.624 1.696,-4 1.696,-1.408 4.768,-1.408 h 2.656 v -1.792 q 0,-1.92 -0.8,-2.816 -0.8,-0.928 -2.56,-0.928 -1.824,0 -4.16,0.96 l -0.512,-1.344 q 2.656,-1.12 4.864,-1.12 2.528,0 3.744,1.312 1.216,1.312 1.216,3.808 z m -5.92,2.336 q 2.72,0 4.128,-3.072 v -4.576 h -2.432 q -4.8,0 -4.8,4.032 0,1.76 0.8,2.688 0.832,0.928 2.304,0.928 z" stroke-width="0px" stroke-linejoin="miter" stroke-miterlimit="2" fill="#F39377" stroke="#F39377" transform="translate(5.684341886080802e-14 368.49232) translate(531.8759275 49.34016) scale(1.43) translate(-525.00625 17.088)"></path>
        <path id="path206634" style="font-style:normal;font-weight:300;font-size:32px;line-height:1;font-family:'Fira Sans Condensed';font-variant-ligatures:none;text-align:center;text-anchor:middle" d="m 544.16175,0.352 q -1.248,0 -1.984,-0.768 -0.736,-0.768 -0.736,-2.208 v -20.928 l 1.792,-0.224 v 21.12 q 0,1.472 1.216,1.472 0.512,0 1.024,-0.224 l 0.448,1.312 q -0.768,0.448 -1.76,0.448 z" stroke-width="0px" stroke-linejoin="miter" stroke-miterlimit="2" fill="#F39377" stroke="#F39377" transform="translate(5.684341886080802e-14 368.49232) translate(558.2386924999998 39.77632) scale(1.43) translate(-541.44175 23.776)"></path>
      </g>
      <g id="title" style="font-style:normal;font-weight:normal;font-size:72px;line-height:1;font-family:'Brandmark Sans 28';font-variant-ligatures:normal;text-align:center;text-anchor:middle" transform="translate(0 0)" fill="#FFFFFF">
        <g id="path206637" aria-label="R" transform="translate(0 288.06863999999996) translate(230.19123704999998 28.32800000000001) scale(1.43) translate(-359.93431 50.4)" fill="#FFFFFF"> <path class="c1" d="M121.67407,92.85052v-0.00006c0-10.35925-8.39795-18.75708-18.75708-18.75708l-24.59106,0.00018v13.27228 l24.59106-0.00018c3.02905,0.00012,5.48486,2.45563,5.48486,5.4848v0.00006c0,3.02893-2.45508,5.48425-5.48413,5.48474v-0.00085 l-8.00049,0.00018l-5.30884,13.27222l10.68262,12.92279h18.58203l-12.16772-13.30518 C115.24854,109.47223,121.67407,101.91193,121.67407,92.85052z" transform="translate(281.60838 -124.49338)" stroke-width="0px" stroke-linejoin="miter" stroke-miterlimit="2" fill="#F39377" stroke="#F39377"></path> <linearGradient id="8673b8e2-13b3-41b6-bbde-cc67f2c38eba" gradientUnits="userSpaceOnUse" x1="92.97134" y1="104.19817" x2="108.90907" y2="123.81383" fill="#FFFFFF"> <stop offset="0" style="stop-color:#FFFFFF;stop-opacity:0.5" fill="#FFFFFF"></stop> <stop offset="0.01383" style="stop-color:#FFFFFF;stop-opacity:0.49309" fill="#FFFFFF"></stop> <stop offset="1" style="stop-color:#FFFFFF;stop-opacity:0" fill="#FFFFFF"></stop> </linearGradient> <polygon class="highlight" fill="url(&quot;#8673b8e2-13b3-41b6-bbde-cc67f2c38eba&quot;)" points="100.29094,124.52959 118.87318,124.52959 94.91724,98.33458 89.60835,111.60686 " transform="translate(281.60838 -124.49338)" stroke-width="0px" stroke-linejoin="miter" stroke-miterlimit="2" opacity="1"></polygon> <linearGradient id="efb936c9-91fa-4522-bd01-b39894bcd3e0" gradientUnits="userSpaceOnUse" x1="100" y1="92.85046" x2="100" y2="74.09338" fill="#FFFFFF"> <stop offset="0" style="stop-color:#FFFFFF;stop-opacity:0" fill="#FFFFFF"></stop> <stop offset="0.98617" style="stop-color:#FFFFFF;stop-opacity:0.49309" fill="#FFFFFF"></stop> <stop offset="1" style="stop-color:#FFFFFF;stop-opacity:0.5" fill="#FFFFFF"></stop> </linearGradient> <path class="highlight" fill="url(&quot;#efb936c9-91fa-4522-bd01-b39894bcd3e0&quot;)" d="M102.91699,74.09338v0.00079V74.09338l-24.59106,0.00018v13.27228l24.59106-0.00018 c3.02905,0.00012,5.48486,2.45563,5.48486,5.4848h13.27222C121.67407,82.49121,113.27612,74.09338,102.91699,74.09338z" transform="translate(281.60838 -124.49338)" stroke-width="0px" stroke-linejoin="miter" stroke-miterlimit="2" opacity="1"></path> <linearGradient id="307bcaf4-b3ff-449f-a3f5-e300e95c14a5" gradientUnits="userSpaceOnUse" x1="86.54824" y1="102.03745" x2="111.8803" y2="102.03745" fill="#FFFFFF"> <stop offset="0.25563" style="stop-color:#000000;stop-opacity:0.4" fill="#FFFFFF"></stop> <stop offset="0.46104" style="stop-color:#0F0D0D;stop-opacity:0.28962" fill="#FFFFFF"></stop> <stop offset="0.75796" style="stop-color:#1E1A1B;stop-opacity:0.13006" fill="#FFFFFF"></stop> <stop offset="1" style="stop-color:#231F20;stop-opacity:0" fill="#FFFFFF"></stop> </linearGradient> <path class="highlight" fill="url(&quot;#307bcaf4-b3ff-449f-a3f5-e300e95c14a5&quot;)" d="M121.67407,92.85052v-0.00006h-13.27222v0.00006c0,3.02893-2.45508,5.48425-5.48413,5.48474 v-0.00085l-8.00049,0.00018l11.78809,12.88983C115.24854,109.47223,121.67407,101.91193,121.67407,92.85052z" transform="translate(281.60838 -124.49338)" stroke-width="0px" stroke-linejoin="miter" stroke-miterlimit="2" opacity="1"></path> </g>
        <g id="path206639" aria-label="I" transform="translate(0 288.06863999999996) translate(322.54206705 28.32800000000001) scale(1.43) translate(-409.51531 50.4)" fill="#FFFFFF"> <polygon class="c1" points="92.68457,74.11133 92.68457,88.72443 92.68457,91.32794 92.68457,124.52972 107.28516,124.52972 107.28516,91.32739 107.28516,88.72552 107.28516,74.11133 " transform="translate(316.83076 -124.49351)" stroke-width="0px" stroke-linejoin="miter" stroke-miterlimit="2" fill="#F39377" stroke="#F39377"></polygon> <linearGradient id="cc3d5690-6c8d-404c-bae0-98cea8fd0347" gradientUnits="userSpaceOnUse" x1="99.9849" y1="88.29665" x2="99.9849" y2="123.32087" fill="#FFFFFF"> <stop offset="0" style="stop-color:#000000;stop-opacity:0.4" fill="#FFFFFF"></stop> <stop offset="0.27595" style="stop-color:#0F0D0D;stop-opacity:0.28962" fill="#FFFFFF"></stop> <stop offset="0.67484" style="stop-color:#1E1A1B;stop-opacity:0.13006" fill="#FFFFFF"></stop> <stop offset="1" style="stop-color:#231F20;stop-opacity:0" fill="#FFFFFF"></stop> </linearGradient> <rect x="92.68465" y="88.72499" class="highlight" fill="url(&quot;#cc3d5690-6c8d-404c-bae0-98cea8fd0347&quot;)" width="14.6005" height="35.80472" transform="translate(316.83076 -124.49351)" stroke-width="0px" stroke-linejoin="miter" stroke-miterlimit="2" opacity="1"></rect> <linearGradient id="868d5404-89a5-4d59-9a9a-e3eb7f9db369" gradientUnits="userSpaceOnUse" x1="96.08685" y1="85.06548" x2="104.20254" y2="77.45702" fill="#FFFFFF"> <stop offset="0" style="stop-color:#000000;stop-opacity:0.4" fill="#FFFFFF"></stop> <stop offset="0.27595" style="stop-color:#0F0D0D;stop-opacity:0.28962" fill="#FFFFFF"></stop> <stop offset="0.67484" style="stop-color:#1E1A1B;stop-opacity:0.13006" fill="#FFFFFF"></stop> <stop offset="1" style="stop-color:#231F20;stop-opacity:0" fill="#FFFFFF"></stop> </linearGradient> <polygon class="highlight" fill="url(&quot;#868d5404-89a5-4d59-9a9a-e3eb7f9db369&quot;)" points="107.28516,74.11133 92.70239,74.11133 107.28516,88.69415 " transform="translate(316.83076 -124.49351)" stroke-width="0px" stroke-linejoin="miter" stroke-miterlimit="2" opacity="1"></polygon> <linearGradient id="201d9e7b-9e21-446f-8081-4a7c735e219f" gradientUnits="userSpaceOnUse" x1="100.20536" y1="81.20361" x2="92.47973" y2="88.92923" fill="#FFFFFF"> <stop offset="0" style="stop-color:#FFFFFF;stop-opacity:0.5" fill="#FFFFFF"></stop> <stop offset="0.01383" style="stop-color:#FFFFFF;stop-opacity:0.49309" fill="#FFFFFF"></stop> <stop offset="1" style="stop-color:#FFFFFF;stop-opacity:0" fill="#FFFFFF"></stop> </linearGradient> <polygon class="highlight" fill="url(&quot;#201d9e7b-9e21-446f-8081-4a7c735e219f&quot;)" points="107.31545,88.72442 92.68455,74.09351 92.68456,88.72442 " transform="translate(316.83076 -124.49351)" stroke-width="0px" stroke-linejoin="miter" stroke-miterlimit="2" opacity="1"></polygon> </g>
        <g id="path206641" aria-label="W" transform="translate(0 288.06863999999996) translate(371.92158295 28.32800000000001) scale(1.43) translate(-429.04644 50.4)" fill="#FFFFFF"> <polygon class="c1" points="123.00049,74.09338 115.89258,100.24133 107.52637,74.09344 107.07422,74.09344 92.92578,74.09344 92.47363,74.09344 84.10742,100.24133 76.99951,74.09338 62.39893,74.09338 76.10938,124.52954 76.33594,124.52954 90.70947,124.52954 90.93652,124.52954 100,96.203 109.06348,124.52954 109.29053,124.52954 123.66406,124.52954 123.89062,124.52954 137.60107,74.09338 " transform="translate(366.64751 -124.49338)" stroke-width="0px" stroke-linejoin="miter" stroke-miterlimit="2" fill="#F39377" stroke="#F39377"></polygon> <linearGradient id="ccae1289-0660-4f96-aa45-f993c51c5b4d" gradientUnits="userSpaceOnUse" x1="117.23576" y1="123.33409" x2="130.47548" y2="72.11729" fill="#FFFFFF"> <stop offset="0" style="stop-color:#FFFFFF;stop-opacity:0" fill="#FFFFFF"></stop> <stop offset="0.98617" style="stop-color:#FFFFFF;stop-opacity:0.49309" fill="#FFFFFF"></stop> <stop offset="1" style="stop-color:#FFFFFF;stop-opacity:0.5" fill="#FFFFFF"></stop> </linearGradient> <polygon class="highlight" fill="url(&quot;#ccae1289-0660-4f96-aa45-f993c51c5b4d&quot;)" points="123.89084,124.52956 109.29034,124.52957 123.00053,74.09343 137.60103,74.09342 " transform="translate(366.64751 -124.49338)" stroke-width="0px" stroke-linejoin="miter" stroke-miterlimit="2" opacity="1"></polygon> <linearGradient id="a67a4e5e-7863-4dd5-8028-1123f3077b3c" gradientUnits="userSpaceOnUse" x1="83.28381" y1="123.82556" x2="69.69891" y2="74.33772" fill="#FFFFFF"> <stop offset="0" style="stop-color:#000000;stop-opacity:0.4" fill="#FFFFFF"></stop> <stop offset="0.27595" style="stop-color:#0F0D0D;stop-opacity:0.28962" fill="#FFFFFF"></stop> <stop offset="0.67484" style="stop-color:#1E1A1B;stop-opacity:0.13006" fill="#FFFFFF"></stop> <stop offset="1" style="stop-color:#231F20;stop-opacity:0" fill="#FFFFFF"></stop> </linearGradient> <polygon class="highlight" fill="url(&quot;#a67a4e5e-7863-4dd5-8028-1123f3077b3c&quot;)" points="76.99951,74.09338 62.39893,74.09338 76.10938,124.52954 76.33594,124.52954 84.10742,100.24133 " transform="translate(366.64751 -124.49338)" stroke-width="0px" stroke-linejoin="miter" stroke-miterlimit="2" opacity="1"></polygon> <linearGradient id="8b0a6682-27b8-466a-81a4-94f9c0f54c13" gradientUnits="userSpaceOnUse" x1="82.92176" y1="125.17349" x2="100.38805" y2="73.74495" fill="#FFFFFF"> <stop offset="0" style="stop-color:#231F20;stop-opacity:0" fill="#FFFFFF"></stop> <stop offset="0.32516" style="stop-color:#1E1A1B;stop-opacity:0.13006" fill="#FFFFFF"></stop> <stop offset="0.72405" style="stop-color:#0F0D0D;stop-opacity:0.28962" fill="#FFFFFF"></stop> <stop offset="1" style="stop-color:#000000;stop-opacity:0.4" fill="#FFFFFF"></stop> </linearGradient> <polygon class="highlight" fill="url(&quot;#8b0a6682-27b8-466a-81a4-94f9c0f54c13&quot;)" points="92.47363,74.09344 76.33594,124.52954 90.93652,124.52954 100,96.20294 92.92578,74.09344 " transform="translate(366.64751 -124.49338)" stroke-width="0px" stroke-linejoin="miter" stroke-miterlimit="2" opacity="1"></polygon> <linearGradient id="659a11d1-1630-4c30-953b-527ba6af1b67" gradientUnits="userSpaceOnUse" x1="116.26712" y1="123.70642" x2="100.11528" y2="74.2818" fill="#FFFFFF"> <stop offset="0" style="stop-color:#000000;stop-opacity:0.4" fill="#FFFFFF"></stop> <stop offset="0.27595" style="stop-color:#0F0D0D;stop-opacity:0.28962" fill="#FFFFFF"></stop> <stop offset="0.67484" style="stop-color:#1E1A1B;stop-opacity:0.13006" fill="#FFFFFF"></stop> <stop offset="1" style="stop-color:#231F20;stop-opacity:0" fill="#FFFFFF"></stop> </linearGradient> <polygon class="highlight" fill="url(&quot;#659a11d1-1630-4c30-953b-527ba6af1b67&quot;)" points="107.52637,74.09344 92.92578,74.09344 109.06348,124.52954 109.29053,124.52954 115.89258,100.24133 " transform="translate(366.64751 -124.49338)" stroke-width="0px" stroke-linejoin="miter" stroke-miterlimit="2" opacity="1"></polygon> </g>
        <g id="path206643" aria-label="I" transform="translate(0 288.06863999999996) translate(508.01754294999995 28.32800000000001) scale(1.43) translate(-509.21844 50.4)" fill="#FFFFFF"> <polygon class="c1" points="92.68457,74.11133 92.68457,88.72443 92.68457,91.32794 92.68457,124.52972 107.28516,124.52972 107.28516,91.32739 107.28516,88.72552 107.28516,74.11133 " transform="translate(416.53389 -124.49351)" stroke-width="0px" stroke-linejoin="miter" stroke-miterlimit="2" fill="#F39377" stroke="#F39377"></polygon> <linearGradient id="319bd6da-2fcc-457d-9c46-ccfbe0861a48" gradientUnits="userSpaceOnUse" x1="99.9849" y1="88.29665" x2="99.9849" y2="123.32087" fill="#FFFFFF"> <stop offset="0" style="stop-color:#000000;stop-opacity:0.4" fill="#FFFFFF"></stop> <stop offset="0.27595" style="stop-color:#0F0D0D;stop-opacity:0.28962" fill="#FFFFFF"></stop> <stop offset="0.67484" style="stop-color:#1E1A1B;stop-opacity:0.13006" fill="#FFFFFF"></stop> <stop offset="1" style="stop-color:#231F20;stop-opacity:0" fill="#FFFFFF"></stop> </linearGradient> <rect x="92.68465" y="88.72499" class="highlight" fill="url(&quot;#319bd6da-2fcc-457d-9c46-ccfbe0861a48&quot;)" width="14.6005" height="35.80472" transform="translate(416.53389 -124.49351)" stroke-width="0px" stroke-linejoin="miter" stroke-miterlimit="2" opacity="1"></rect> <linearGradient id="b3f093c7-a161-42bf-a34e-39950599fde5" gradientUnits="userSpaceOnUse" x1="96.08685" y1="85.06548" x2="104.20254" y2="77.45702" fill="#FFFFFF"> <stop offset="0" style="stop-color:#000000;stop-opacity:0.4" fill="#FFFFFF"></stop> <stop offset="0.27595" style="stop-color:#0F0D0D;stop-opacity:0.28962" fill="#FFFFFF"></stop> <stop offset="0.67484" style="stop-color:#1E1A1B;stop-opacity:0.13006" fill="#FFFFFF"></stop> <stop offset="1" style="stop-color:#231F20;stop-opacity:0" fill="#FFFFFF"></stop> </linearGradient> <polygon class="highlight" fill="url(&quot;#b3f093c7-a161-42bf-a34e-39950599fde5&quot;)" points="107.28516,74.11133 92.70239,74.11133 107.28516,88.69415 " transform="translate(416.53389 -124.49351)" stroke-width="0px" stroke-linejoin="miter" stroke-miterlimit="2" opacity="1"></polygon> <linearGradient id="ec924158-07b6-451f-8eed-3c3d25232391" gradientUnits="userSpaceOnUse" x1="100.20536" y1="81.20361" x2="92.47973" y2="88.92923" fill="#FFFFFF"> <stop offset="0" style="stop-color:#FFFFFF;stop-opacity:0.5" fill="#FFFFFF"></stop> <stop offset="0.01383" style="stop-color:#FFFFFF;stop-opacity:0.49309" fill="#FFFFFF"></stop> <stop offset="1" style="stop-color:#FFFFFF;stop-opacity:0" fill="#FFFFFF"></stop> </linearGradient> <polygon class="highlight" fill="url(&quot;#ec924158-07b6-451f-8eed-3c3d25232391&quot;)" points="107.31545,88.72442 92.68455,74.09351 92.68456,88.72442 " transform="translate(416.53389 -124.49351)" stroke-width="0px" stroke-linejoin="miter" stroke-miterlimit="2" opacity="1"></polygon> </g>
        <g id="path206645" aria-label="Y" transform="translate(0 288.06863999999996) translate(556.2644845499999 28.32800000000001) scale(1.43) translate(-527.95756 50.4)" fill="#FFFFFF"> <polygon class="c1" points="110.61768,74.09332 100,94.06689 89.38232,74.09332 74.78174,74.09332 92.69971,107.79993 92.69971,124.52948 107.30029,124.52948 107.30029,107.79993 125.21826,74.09332 " transform="translate(453.17582 -124.49332)" stroke-width="0px" stroke-linejoin="miter" stroke-miterlimit="2" fill="#F39377" stroke="#F39377"></polygon> <linearGradient id="21941ae2-93f7-47f0-9c9b-798064bb029d" gradientUnits="userSpaceOnUse" x1="101.59605" y1="104.51739" x2="119.66432" y2="71.21508" fill="#FFFFFF"> <stop offset="0.31657" style="stop-color:#FFFFFF;stop-opacity:0" fill="#FFFFFF"></stop> <stop offset="1" style="stop-color:#FFFFFF;stop-opacity:0.5" fill="#FFFFFF"></stop> </linearGradient> <polygon class="highlight" fill="url(&quot;#21941ae2-93f7-47f0-9c9b-798064bb029d&quot;)" points="110.61756,74.09333 125.21806,74.09333 107.30025,107.79992 92.69975,107.79992 " transform="translate(453.17582 -124.49332)" stroke-width="0px" stroke-linejoin="miter" stroke-miterlimit="2" opacity="1"></polygon> <linearGradient id="ea88f26b-3d74-49c5-baef-61a4a6e6e1e1" gradientUnits="userSpaceOnUse" x1="101.59605" y1="104.51739" x2="119.66432" y2="71.21508" fill="#FFFFFF"> <stop offset="0" style="stop-color:#231F20;stop-opacity:0.3" fill="#FFFFFF"></stop> <stop offset="0.77499" style="stop-color:#231F20;stop-opacity:0" fill="#FFFFFF"></stop> </linearGradient> <polygon class="highlight" fill="url(&quot;#ea88f26b-3d74-49c5-baef-61a4a6e6e1e1&quot;)" points="110.61756,74.09333 125.21806,74.09333 107.30025,107.79992 92.69975,107.79992 " transform="translate(453.17582 -124.49332)" stroke-width="0px" stroke-linejoin="miter" stroke-miterlimit="2" opacity="1"></polygon> <linearGradient id="185341f4-7d64-497e-8d9f-23ef29143f1b" gradientUnits="userSpaceOnUse" x1="100" y1="124.5295" x2="100" y2="107.79992" fill="#FFFFFF"> <stop offset="0" style="stop-color:#231F20;stop-opacity:0.3" fill="#FFFFFF"></stop> <stop offset="0.7933" style="stop-color:#231F20;stop-opacity:0" fill="#FFFFFF"></stop> </linearGradient> <rect x="92.69975" y="107.79992" class="highlight" fill="url(&quot;#185341f4-7d64-497e-8d9f-23ef29143f1b&quot;)" width="14.6005" height="16.72959" transform="translate(453.17582 -124.49332)" stroke-width="0px" stroke-linejoin="miter" stroke-miterlimit="2" opacity="1"></rect> <linearGradient id="f1fc1735-443c-429d-bfda-ee86d2d2d636" gradientUnits="userSpaceOnUse" x1="98.41799" y1="104.42376" x2="79.99544" y2="70.76717" fill="#FFFFFF"> <stop offset="0" style="stop-color:#231F20;stop-opacity:0.65" fill="#FFFFFF"></stop> <stop offset="0.01048" style="stop-color:#231F20;stop-opacity:0.64101" fill="#FFFFFF"></stop> <stop offset="0.75791" style="stop-color:#231F20;stop-opacity:0" fill="#FFFFFF"></stop> </linearGradient> <polygon class="highlight" fill="url(&quot;#f1fc1735-443c-429d-bfda-ee86d2d2d636&quot;)" points="89.38232,74.09332 74.78174,74.09332 92.69971,107.79987 100,94.06683 " transform="translate(453.17582 -124.49332)" stroke-width="0px" stroke-linejoin="miter" stroke-miterlimit="2" opacity="1"></polygon> </g>
        <g id="path206647" aria-label="A" transform="translate(0 288.06863999999996) translate(640.1709929499999 28.32800000000001) scale(1.43) translate(-571.63344 50.4)" fill="#FFFFFF"> <polygon class="c1" points="126.98309,124.52972 107.96387,74.09351 107.07361,74.09351 92.69977,74.09351 91.80945,74.09351 73.01691,124.52972 88.28107,124.52972 99.92975,93.26648 111.71893,124.52972 " transform="translate(498.61653 -124.49351)" stroke-width="0px" stroke-linejoin="miter" stroke-miterlimit="2" fill="#F39377" stroke="#F39377"></polygon> <linearGradient id="730cb4fc-a096-4f85-b13d-3fe43080babd" gradientUnits="userSpaceOnUse" x1="99.69487" y1="74.29882" x2="80.55542" y2="123.91029" fill="#FFFFFF"> <stop offset="0.22" style="stop-color:#231F20;stop-opacity:0" fill="#FFFFFF"></stop> <stop offset="0.47363" style="stop-color:#1E1A1B;stop-opacity:0.13006" fill="#FFFFFF"></stop> <stop offset="0.78476" style="stop-color:#0F0D0D;stop-opacity:0.28962" fill="#FFFFFF"></stop> <stop offset="1" style="stop-color:#000000;stop-opacity:0.4" fill="#FFFFFF"></stop> </linearGradient> <polygon class="highlight" fill="url(&quot;#730cb4fc-a096-4f85-b13d-3fe43080babd&quot;)" points="107.07359,74.09354 91.80946,74.09354 73.01694,124.52972 88.28106,124.52972 " transform="translate(498.61653 -124.49351)" stroke-width="0px" stroke-linejoin="miter" stroke-miterlimit="2" opacity="1"></polygon> <linearGradient id="d6de4d5a-5825-4163-9afa-7db735702142" gradientUnits="userSpaceOnUse" x1="99.69487" y1="74.29882" x2="80.55542" y2="123.91029" fill="#FFFFFF"> <stop offset="0" style="stop-color:#FFFFFF;stop-opacity:0.4" fill="#FFFFFF"></stop> <stop offset="0.78" style="stop-color:#FFFFFF;stop-opacity:0" fill="#FFFFFF"></stop> </linearGradient> <polygon class="highlight" fill="url(&quot;#d6de4d5a-5825-4163-9afa-7db735702142&quot;)" points="107.07359,74.09354 91.80946,74.09354 73.01694,124.52972 88.28106,124.52972 " transform="translate(498.61653 -124.49351)" stroke-width="0px" stroke-linejoin="miter" stroke-miterlimit="2" opacity="1"></polygon> <linearGradient id="b03e0a39-1037-4302-b63d-24925bdde3e6" gradientUnits="userSpaceOnUse" x1="118.91997" y1="121.8189" x2="100.46027" y2="76.05422" fill="#FFFFFF"> <stop offset="0" style="stop-color:#231F20;stop-opacity:0" fill="#FFFFFF"></stop> <stop offset="0.32516" style="stop-color:#1E1A1B;stop-opacity:0.13006" fill="#FFFFFF"></stop> <stop offset="0.72405" style="stop-color:#0F0D0D;stop-opacity:0.28962" fill="#FFFFFF"></stop> <stop offset="1" style="stop-color:#000000;stop-opacity:0.4" fill="#FFFFFF"></stop> </linearGradient> <polygon class="highlight" fill="url(&quot;#b03e0a39-1037-4302-b63d-24925bdde3e6&quot;)" points="126.98309,124.52972 107.96387,74.09351 107.07361,74.09351 99.92975,93.26648 111.71893,124.52972 " transform="translate(498.61653 -124.49351)" stroke-width="0px" stroke-linejoin="miter" stroke-miterlimit="2" opacity="1"></polygon> </g>
        <g id="path206649" aria-label="T" transform="translate(0 288.06863999999996) translate(731.51796295 28.32800000000001) scale(1.43) translate(-620.51244 50.4)" fill="#FFFFFF"> <polygon class="c1" points="121.78027,74.09302 92.69922,74.0932 92.69922,74.09277 78.21973,74.09296 78.21973,87.36523 92.69922,87.36505 92.69922,87.36548 92.7002,87.36548 92.7002,124.5296 107.30078,124.5296 107.30078,87.36536 121.78027,87.3653 " transform="translate(542.29282 -124.49277)" stroke-width="0px" stroke-linejoin="miter" stroke-miterlimit="2" fill="#F39377" stroke="#F39377"></polygon> <linearGradient id="a34cbe49-c10f-4129-a4f1-9412d16ca70e" gradientUnits="userSpaceOnUse" x1="98.75742" y1="80.72904" x2="79.02769" y2="80.72904" fill="#FFFFFF"> <stop offset="0.25563" style="stop-color:#000000;stop-opacity:0.4" fill="#FFFFFF"></stop> <stop offset="0.46104" style="stop-color:#0F0D0D;stop-opacity:0.28962" fill="#FFFFFF"></stop> <stop offset="0.75796" style="stop-color:#1E1A1B;stop-opacity:0.13006" fill="#FFFFFF"></stop> <stop offset="1" style="stop-color:#231F20;stop-opacity:0" fill="#FFFFFF"></stop> </linearGradient> <polygon class="highlight" fill="url(&quot;#a34cbe49-c10f-4129-a4f1-9412d16ca70e&quot;)" points="78.21962,87.36527 78.21963,74.09299 92.69942,74.09282 92.69942,87.36509 " transform="translate(542.29282 -124.49277)" stroke-width="0px" stroke-linejoin="miter" stroke-miterlimit="2" opacity="1"></polygon> <linearGradient id="1b7a7860-0412-4866-b29f-862c4e3e0351" gradientUnits="userSpaceOnUse" x1="100.00058" y1="76.36192" x2="100.00058" y2="124.5535" fill="#FFFFFF"> <stop offset="0" style="stop-color:#FFFFFF;stop-opacity:0.5" fill="#FFFFFF"></stop> <stop offset="0.01383" style="stop-color:#FFFFFF;stop-opacity:0.49309" fill="#FFFFFF"></stop> <stop offset="1" style="stop-color:#FFFFFF;stop-opacity:0" fill="#FFFFFF"></stop> </linearGradient> <polygon class="highlight" fill="url(&quot;#1b7a7860-0412-4866-b29f-862c4e3e0351&quot;)" points="92.70033,124.52959 107.30083,124.52959 107.30083,87.3651 92.70033,74.09324 " transform="translate(542.29282 -124.49277)" stroke-width="0px" stroke-linejoin="miter" stroke-miterlimit="2" opacity="1"></polygon> <linearGradient id="21a6d083-7d1e-47af-97d5-de7955a3c772" gradientUnits="userSpaceOnUse" x1="98.22302" y1="88.5871" x2="108.27877" y2="79.82423" fill="#FFFFFF"> <stop offset="0.25563" style="stop-color:#000000;stop-opacity:0.4" fill="#FFFFFF"></stop> <stop offset="0.46104" style="stop-color:#0F0D0D;stop-opacity:0.28962" fill="#FFFFFF"></stop> <stop offset="0.75796" style="stop-color:#1E1A1B;stop-opacity:0.13006" fill="#FFFFFF"></stop> <stop offset="1" style="stop-color:#231F20;stop-opacity:0" fill="#FFFFFF"></stop> </linearGradient> <polygon class="highlight" fill="url(&quot;#21a6d083-7d1e-47af-97d5-de7955a3c772&quot;)" points="121.78027,74.09302 92.7002,74.0932 107.30127,87.36536 121.78027,87.3653 " transform="translate(542.29282 -124.49277)" stroke-width="0px" stroke-linejoin="miter" stroke-miterlimit="2" opacity="1"></polygon> </g>
             </g>
      <image xlink:href="" id="icon" style="display: none;" x="0" y="0" fill="#FFFFFF"></image>
    </g>
  </g>
</svg>